{"title":"The 5th Wave (2016) TS x264 - Exclusive","uid":13312514,"size":789775195,"categoryP":"video","categoryS":"movies","magnet":"?xt=urn:btih:f7a255762490b1c12ad8dd8bc35b9c7e91fdcfb6&amp;dn=The+5th+Wave+%282016%29+TS+x264+-+Exclusive&amp;tr=udp%3A%2F%2Ftracker.leechers-paradise.org%3A6969&amp;tr=udp%3A%2F%2Fzer0day.ch%3A1337&amp;tr=udp%3A%2F%2Fopen.demonii.com%3A1337&amp;tr=udp%3A%2F%2Ftracker.coppersurfer.tk%3A6969&amp;tr=udp%3A%2F%2Fexodus.desync.com%3A6969","seeders":9,"leechers":4,"uploader":"xxxlavalxxx","files":2,"time":1453785389,"description":"http://extraimago.com/image/6Hv\r\n \nhttp://www.imdb.com/title/tt2304933/\r\n\r\n\r\nFour waves of increasingly deadly alien attacks have left most of Earth decimated. Cassie is on the run, desperately trying to save her younger brother.\r\n\r\nDirector: J Blakeson\r\nWriters: Susannah Grant (screenplay), Akiva Goldsman (screenplay)\r\nStars: Chloë Grace Moretz, Matthew Zuk, Gabriela Lopez\r\nGenres: Action | Adventure | Sci-Fi | Thriller\r\nCountry: USA\r\nLanguage: English\r\n\r\n\r\nThe 5th Wave (2016) TS x264 - Exclusive\r\n\r\nVideo: Latino mD\r\nAudio: Th0ravenger, Thx My friend for the LiNE Audio \r\n\r\n \nhttp://www.imdb.com/title/tt2304933/\r\n\r\n\r\nGeneral\r\nFormat                                   : Matroska\r\nFormat version                           : Version 4 / Version 2\r\nFile size                                : 753 MiB\r\nDuration                                 : 1h 45mn\r\nOverall bit rate                         : 995 Kbps\r\nEncoded date                             : UTC 2016-01-24 17:14:44\r\nWriting application                      : mkvmerge v8.8.0 ('Wind at my back') 32bit\r\nWriting library                          : libebml v1.3.3 + libmatroska v1.4.4\r\nDURATION                                 : 01:45:47.264000000\r\nNUMBER_OF_FRAMES                         : 198352\r\nNUMBER_OF_BYTES                          : 152334336\r\n_STATISTICS_WRITING_APP                  : mkvmerge v8.8.0 ('Wind at my back') 32bit\r\n_STATISTICS_WRITING_DATE_UTC             : 2016-01-24 17:14:44\r\n_STATISTICS_TAGS                         : BPS DURATION NUMBER_OF_FRAMES NUMBER_OF_BYTES\r\n\r\nVideo\r\nID                                       : 1\r\nFormat                                   : MPEG-4 Visual\r\nFormat profile                           :   \r\nFormat settings, BVOP                    : No\r\nFormat settings, QPel                    : No\r\nFormat settings, GMC                     : No warppoints\r\nFormat settings, Matrix                  : Default (H.263)\r\nCodec ID                                 : V_MS/VFW/FOURCC / DIVX\r\nCodec ID/Info                            : Project Mayo\r\nCodec ID/Hint                            : DivX 4\r\nDuration                                 : 1h 45mn\r\nBit rate                                 : 784 Kbps\r\nWidth                                    : 720 pixels\r\nHeight                                   : 480 pixels\r\nDisplay aspect ratio                     : 3:2\r\nFrame rate mode                          : Constant\r\nFrame rate                               : 29.970 fps\r\nStandard                                 : NTSC\r\nColor space                              : YUV\r\nChroma subsampling                       : 4:2:0\r\nBit depth                                : 8 bits\r\nScan type                                : Progressive\r\nCompression mode                         : Lossy\r\nBits/(Pixel*Frame)                       : 0.076\r\nStream size                              : 593 MiB (79%)\r\nWriting library                          : Lavc51.40.4\r\nDefault                                  : Yes\r\nForced                                   : No\r\n\r\nAudio\r\nID                                       : 2\r\nFormat                                   : AC-3\r\nFormat/Info                              : Audio Coding 3\r\nMode extension                           : CM (complete main)\r\nFormat settings, Endianness              : Big\r\nCodec ID                                 : A_AC3\r\nDuration                                 : 1h 45mn\r\nBit rate mode                            : Constant\r\nBit rate                                 : 192 Kbps\r\nChannel(s)                               : 2 channels\r\nChannel positions                        : Front: L R\r\nSampling rate                            : 48.0 KHz\r\nBit depth                                : 16 bits\r\nCompression mode                         : Lossy\r\nStream size                              : 145 MiB (19%)\r\nDefault                                  : Yes\r\nForced                                   : No\r\n \nhttp://extraimago.com/image/6HW \nhttp://extraimago.com/image/6Hf \nhttp://extraimago.com/image/6k8 \nhttp://extraimago.com/image/6ka","torrent":{"xt":"urn:btih:f7a255762490b1c12ad8dd8bc35b9c7e91fdcfb6","amp;dn":"The+5th+Wave+%282016%29+TS+x264+-+Exclusive","amp;tr":["udp%3A%2F%2Ftracker.leechers-paradise.org%3A6969","udp%3A%2F%2Fzer0day.ch%3A1337","udp%3A%2F%2Fopen.demonii.com%3A1337","udp%3A%2F%2Ftracker.coppersurfer.tk%3A6969","udp%3A%2F%2Fexodus.desync.com%3A6969"],"infoHash":"f7a255762490b1c12ad8dd8bc35b9c7e91fdcfb6","infoHashBuffer":{"type":"Buffer","data":[247,162,85,118,36,144,177,193,42,216,221,139,195,91,156,126,145,253,207,182]},"announce":[],"urlList":[]}}